<svg xmlns="http://www.w3.org/2000/svg" x="0px" y="0px" width="30" height="30" viewBox="0 0 64 64">
<linearGradient id="W62fYfh4g0tVpTDXIj7CYa_YIqQ4JMtgeWi_gr1" x1="30.005" x2="30.005" y1="14.213" y2="38.596" gradientUnits="userSpaceOnUse"><stop offset="0" stop-color="#6dc7ff"></stop><stop offset="1" stop-color="#e6abff"></stop></linearGradient><path fill="url(#W62fYfh4g0tVpTDXIj7CYa_YIqQ4JMtgeWi_gr1)" d="M27.63,25.51c0-1.32,1.07-2.4,2.38-2.4s2.37,1.08,2.37,2.4c0,1.32-1.06,2.39-2.37,2.39 C28.68,27.9,27.63,26.85,27.63,25.51z"></path><linearGradient id="W62fYfh4g0tVpTDXIj7CYb_YIqQ4JMtgeWi_gr2" x1="32" x2="32" y1="13" y2="51" gradientUnits="userSpaceOnUse"><stop offset="0" stop-color="#6dc7ff"></stop><stop offset="1" stop-color="#e6abff"></stop></linearGradient><path fill="url(#W62fYfh4g0tVpTDXIj7CYb_YIqQ4JMtgeWi_gr2)" d="M28.84,36.71 c-1.31,0.02-2.36,1.09-2.35,2.4c0.02,1.32,1.1,2.37,2.41,2.35h0.02c1.3-0.01,2.34-1.07,2.33-2.37v-0.03 C31.23,37.75,30.15,36.7,28.84,36.71z M28.84,36.71c-1.31,0.02-2.36,1.09-2.35,2.4c0.02,1.32,1.1,2.37,2.41,2.35h0.02 c1.3-0.01,2.34-1.07,2.33-2.37v-0.03C31.23,37.75,30.15,36.7,28.84,36.71z M28.84,36.71c-1.31,0.02-2.36,1.09-2.35,2.4 c0.02,1.32,1.1,2.37,2.41,2.35h0.02c1.3-0.01,2.34-1.07,2.33-2.37v-0.03C31.23,37.75,30.15,36.7,28.84,36.71z M38.69,23.1 c-0.94,0-1.73,0.61-2.04,1.53h4.06C40.42,23.71,39.63,23.1,38.69,23.1z M28.84,36.71c-1.31,0.02-2.36,1.09-2.35,2.4 c0.02,1.32,1.1,2.37,2.41,2.35h0.02c1.3-0.01,2.34-1.07,2.33-2.37v-0.03C31.23,37.75,30.15,36.7,28.84,36.71z M38.69,23.1 c-0.94,0-1.73,0.61-2.04,1.53h4.06C40.42,23.71,39.63,23.1,38.69,23.1z M49,13H15c-1.1,0-2,0.9-2,2v34c0,1.1,0.9,2,2,2h34 c1.1,0,2-0.9,2-2V15C51,13.9,50.1,13,49,13z M43.4,21.6h1.82v0.57c0.41-0.41,0.96-0.63,1.6-0.63h0.68v1.74h-0.79 c-0.88,0-1.48,0.68-1.48,1.71v4.41H43.4V21.6z M38.72,21.45c2.22,0,3.9,1.74,3.9,4.05v0.66h-6.01c0.27,1.04,1.16,1.74,2.24,1.74 c0.82,0,1.49-0.34,1.99-1.01l0.11-0.15l1.36,1.01l-0.11,0.14c-0.81,1.08-2,1.67-3.35,1.67c-2.36,0-4.13-1.74-4.13-4.06 C34.72,23.27,36.51,21.45,38.72,21.45z M25.83,18.83h1.83v3.49c0.69-0.57,1.54-0.88,2.46-0.88c2.29,0,4.09,1.79,4.09,4.07 s-1.8,4.06-4.09,4.06c-0.91,0-1.78-0.31-2.47-0.88v0.71h-1.82V18.83z M16.25,18.83h1.9v6.48c0,1.49,0.96,2.52,2.32,2.52 c1.35,0,2.33-1.06,2.33-2.52v-6.48h1.89V29.4h-1.88v-0.71c-0.69,0.57-1.57,0.88-2.51,0.88c-2.35,0-4.05-1.76-4.05-4.18V18.83z M23.82,34.25h-5.41v2.58h5.26v1.75h-5.26v2.61h5.41v1.82h-7.41V32.44h7.41V34.25z M33.18,43h-1.97v-0.74 c-0.69,0.59-1.57,0.91-2.47,0.91h-0.18c-2.25-0.05-4.04-1.92-3.99-4.17c0.04-2.26,1.91-4.05,4.17-4c0.9,0,1.78,0.32,2.47,0.9v-0.7 h1.97V43z M39.71,36.96H37.5v3.67c0,0.42,0.28,0.61,0.73,0.61h1.48v1.77h-2.12c-1.33,0-2.07-0.83-2.07-1.87v-4.18h-1.49V35.2h1.5 v-2.21h1.97v2.21h2.21V36.96z M44.21,43.17c-2.44,0-3.65-1.08-3.93-2.7h1.96c0.26,0.86,0.9,1.11,2.03,1.11 c0.9,0,1.46-0.31,1.46-0.79c0-0.31-0.2-0.51-0.93-0.65l-1.87-0.43c-1.71-0.36-2.5-1.1-2.5-2.23c0-1.64,1.44-2.48,3.48-2.48 c2.37,0,3.54,1.07,3.65,2.7H45.6c-0.18-0.87-0.87-1.12-1.8-1.12c-0.87,0-1.33,0.29-1.33,0.76c0,0.36,0.3,0.54,1.27,0.72l1.68,0.34 c1.58,0.34,2.33,1.14,2.33,2.2C47.75,42.09,46.48,43.17,44.21,43.17z M38.69,23.1c-0.94,0-1.73,0.61-2.04,1.53h4.06 C40.42,23.71,39.63,23.1,38.69,23.1z M28.84,36.71c-1.31,0.02-2.36,1.09-2.35,2.4c0.02,1.32,1.1,2.37,2.41,2.35h0.02 c1.3-0.01,2.34-1.07,2.33-2.37v-0.03C31.23,37.75,30.15,36.7,28.84,36.71z M38.69,23.1c-0.94,0-1.73,0.61-2.04,1.53h4.06 C40.42,23.71,39.63,23.1,38.69,23.1z M28.84,36.71c-1.31,0.02-2.36,1.09-2.35,2.4c0.02,1.32,1.1,2.37,2.41,2.35h0.02 c1.3-0.01,2.34-1.07,2.33-2.37v-0.03C31.23,37.75,30.15,36.7,28.84,36.71z M38.69,23.1c-0.94,0-1.73,0.61-2.04,1.53h4.06 C40.42,23.71,39.63,23.1,38.69,23.1z M28.84,36.71c-1.31,0.02-2.36,1.09-2.35,2.4c0.02,1.32,1.1,2.37,2.41,2.35h0.02 c1.3-0.01,2.34-1.07,2.33-2.37v-0.03C31.23,37.75,30.15,36.7,28.84,36.71z M28.84,36.71c-1.31,0.02-2.36,1.09-2.35,2.4 c0.02,1.32,1.1,2.37,2.41,2.35h0.02c1.3-0.01,2.34-1.07,2.33-2.37v-0.03C31.23,37.75,30.15,36.7,28.84,36.71z M28.84,36.71 c-1.31,0.02-2.36,1.09-2.35,2.4c0.02,1.32,1.1,2.37,2.41,2.35h0.02c1.3-0.01,2.34-1.07,2.33-2.37v-0.03 C31.23,37.75,30.15,36.7,28.84,36.71z"></path><linearGradient id="W62fYfh4g0tVpTDXIj7CYc_YIqQ4JMtgeWi_gr3" x1="32" x2="32" y1="-31" y2="15" gradientTransform="translate(0 40)" gradientUnits="userSpaceOnUse"><stop offset="0" stop-color="#1a6dff"></stop><stop offset="1" stop-color="#c822ff"></stop></linearGradient><path fill="url(#W62fYfh4g0tVpTDXIj7CYc_YIqQ4JMtgeWi_gr3)" d="M49,55H15c-3.309,0-6-2.691-6-6V15 c0-3.309,2.691-6,6-6h34c3.309,0,6,2.691,6,6v34C55,52.309,52.309,55,49,55z M15,11c-2.206,0-4,1.794-4,4v34c0,2.206,1.794,4,4,4 h34c2.206,0,4-1.794,4-4V15c0-2.206-1.794-4-4-4H15z"></path>
</svg>
